<svg width="660" height="370" viewBox="0 0 660 370" fill="none" xmlns="http://www.w3.org/2000/svg">
<path d="M442.648 0.895325C398.401 0.896957 335.659 12.1047 268.506 33.8474C147.935 72.8892 58.7953 131.111 69.4082 163.89C74.1107 178.413 97.6014 185.505 132.8 185.505C140.055 185.505 147.808 185.203 155.995 184.604C156.62 183.792 157.267 182.939 157.935 182.041C166.548 170.446 173.737 165.786 180.291 165.392C180.609 165.372 180.928 165.362 181.243 165.362C184.974 165.361 188.502 166.747 191.991 168.994C195.056 170.974 199.725 174.481 204.7 178.374C205.027 178.316 205.358 178.257 205.685 178.2C205.152 171.055 204.935 164.665 205.432 161.304C205.614 160.08 206.102 158.956 206.817 157.927C206.235 153.531 213.171 154.772 209.398 150.528C204.858 145.42 211.1 140.5 214.507 136.527C217.912 132.555 215.168 128.58 215.736 118.931C216.304 109.282 223.872 95.0931 237.493 89.7944C239.909 88.8558 242.288 88.4702 244.574 88.4702C255.18 88.4702 263.7 96.7947 263.7 96.7947C263.7 96.7947 273.442 99.0658 274.294 107.769C275.145 116.471 268.997 128.391 267.105 133.972C265.212 139.555 268.806 138.987 268.298 142.865C267.787 146.744 265.022 146.649 267.672 151.852C268.657 153.787 268.36 155.551 267.598 157.005C268.603 157.848 269.371 158.726 269.76 159.609C269.998 160.152 270.49 161.445 271.161 163.273C282.306 160.206 293.652 156.826 305.134 153.136V35.495C305.134 35.4835 305.134 35.4736 305.134 35.4638C305.134 35.4605 305.134 35.4572 305.134 35.4539C305.134 35.4457 305.134 35.4392 305.134 35.431C305.134 35.4277 305.134 35.4244 305.134 35.4211C305.134 35.4129 305.134 35.4047 305.134 35.3965C305.134 35.3949 305.134 35.3916 305.134 35.39C305.134 35.3686 305.134 35.3473 305.135 35.3259C305.135 35.3243 305.135 35.3211 305.135 35.3178C305.135 35.3096 305.135 35.3013 305.135 35.2931C305.135 35.2899 305.135 35.2882 305.135 35.2866C305.135 35.2751 305.135 35.2669 305.135 35.257C305.135 35.2554 305.135 35.2554 305.135 35.2538C305.185 33.0385 305.912 30.9905 307.119 29.3118C308.618 27.2295 310.853 25.7132 313.445 25.1455C313.447 25.1455 313.447 25.1455 313.449 25.1438C313.453 25.1438 313.46 25.1422 313.467 25.1405C314.118 24.9994 314.794 24.9173 315.488 24.9009C315.49 24.9009 315.49 24.9009 315.492 24.9009C315.501 24.9009 315.51 24.9009 315.519 24.9009C315.523 24.9009 315.524 24.9009 315.526 24.9009C315.534 24.9009 315.546 24.9009 315.554 24.9009C315.556 24.9009 315.557 24.9009 315.559 24.9009C315.569 24.8993 315.58 24.8993 315.592 24.8993H315.593C315.603 24.8993 315.613 24.8993 315.623 24.8993C315.626 24.8993 315.629 24.8993 315.633 24.8993C315.639 24.8993 315.647 24.8993 315.654 24.8993C315.659 24.8993 315.662 24.8993 315.665 24.8993C315.672 24.8993 315.68 24.8993 315.688 24.8993C315.69 24.8993 315.695 24.8993 315.697 24.8993C315.708 24.8993 315.718 24.8993 315.729 24.8993H506.629C506.49 24.087 506.293 23.2928 506.04 22.5101C501.337 7.98755 477.845 0.895325 442.648 0.895325Z" fill="#F2F6FB"/>
<path d="M536.125 142.195C535.32 142.195 534.506 142.198 533.687 142.207V165.134V165.786C533.687 171.642 528.949 176.38 523.091 176.38H370.626C348.521 184.391 328.015 193.168 309.743 202.277H351.479C352.418 202.277 353.129 203.124 352.978 204.048L345.638 246.142L345.334 247.852C345.214 248.579 344.578 249.092 343.852 249.092H328.432L332.756 251.56L352.993 282.392C352.993 282.392 360.47 285.026 368.675 288.249C371.804 289.475 375.045 290.784 378.025 292.067C394.1 288.251 410.812 283.582 427.838 278.068C530.554 244.809 605.907 193.406 596.145 163.257C591.577 149.146 569.191 142.193 536.125 142.195ZM286.154 214.929L284.546 224.836C284.546 224.836 280.664 224.317 279.402 223.874C278.962 223.72 278.263 222.11 277.538 220.078C273.791 222.391 270.217 224.701 266.808 227.013C266.834 227.778 266.86 228.497 266.885 229.16C266.937 230.241 266.98 231.158 267 231.861C267.316 231.844 267.64 231.836 267.973 231.836C269.743 231.836 271.691 232.103 273.222 233.144C274.443 233.974 276.018 235.371 277.492 236.765L282.431 237.885L286.154 214.929Z" fill="#F2F6FB"/>
<path d="M141.812 200.956C137.666 202.133 133.455 203.408 129.206 204.785C77.8246 221.422 39.8634 246.309 44.4164 260.372C46.4445 266.636 56.5582 269.695 71.691 269.695C81.3123 269.695 92.9658 268.457 105.856 266.02C109.528 252.064 115.439 238.685 121.609 228.751C130.979 213.674 136.622 206.729 141.812 200.956Z" fill="#F2F6FB"/>
<path d="M566.158 82.8825C557.678 82.8825 547.873 84.4464 537.814 87.7037C536.414 88.1566 535.037 88.6341 533.687 89.133V136.096C539.557 135.356 545.792 133.976 552.133 131.923C578.351 123.434 596.401 106.652 592.447 94.4415C590.011 86.916 579.786 82.8825 566.158 82.8825Z" fill="#F2F6FB"/>
<path d="M552.176 257.205C537.942 257.205 519.015 260.466 498.987 266.951C459.868 279.617 431.362 299.785 435.315 311.995C437.244 317.955 446.547 320.919 460.114 320.919C474.348 320.919 493.278 317.655 513.305 311.17C552.423 298.503 580.93 278.336 576.976 266.127C575.046 260.167 565.745 257.205 552.176 257.205Z" fill="#F2F6FB"/>
<path d="M535.656 152.305C535.656 152.305 549.476 145.487 552.675 128.626C555.871 111.765 559.998 91.1251 575.674 105.447C591.352 119.768 577.118 160.666 552.675 170.733C528.229 180.799 528.229 180.799 528.229 180.799C528.229 180.799 528.229 153.674 535.656 152.305Z" fill="#1D5B45"/>
<path d="M519.875 178.367C519.875 178.367 544.002 163.152 557.156 148.831C570.312 134.509 567.094 115.977 567.094 115.977C567.094 115.977 572.374 132.825 560.41 149.251C548.446 165.679 519.875 178.367 519.875 178.367Z" fill="#12382A"/>
<path d="M529.524 148.068C529.524 148.068 537.976 143.984 539.931 133.885C541.885 123.787 544.409 111.427 553.994 120.003C563.58 128.58 554.877 153.075 539.931 159.105C524.985 165.134 524.985 165.134 524.985 165.134C524.985 165.134 524.985 148.889 529.524 148.068Z" fill="#2C8443"/>
<path d="M519.875 163.677C519.875 163.677 534.627 154.565 542.671 145.987C550.714 137.41 548.748 126.311 548.748 126.311C548.748 126.311 551.977 136.401 544.66 146.238C537.345 156.078 519.875 163.677 519.875 163.677Z" fill="#1D5B45"/>
<path d="M540.31 169.826C540.31 169.826 552.417 163.016 575.312 148.636C598.205 134.256 602.743 125.861 601.231 139.33C599.718 152.799 593.549 167.42 570.902 176.38C548.255 185.341 517.54 183.413 540.31 169.826Z" fill="#6EAF45"/>
<path d="M539.931 179.286C539.931 179.286 548.265 177.63 566.897 164.363C585.527 151.096 588.933 148.068 588.933 148.068C588.933 148.068 569.56 164.665 560.42 171.219C551.283 177.773 539.931 179.286 539.931 179.286Z" fill="#2C8443"/>
<path d="M529.524 77.2361C529.524 77.2361 551.472 16.9521 573.797 27.9268C596.122 38.8999 524.227 91.7996 524.227 91.7996L529.524 77.2361Z" fill="#2C8443"/>
<path d="M524.921 89.8928C524.921 89.8928 562.066 40.7919 560.364 42.6839C558.661 44.576 535.075 84.3135 524.921 89.8928Z" fill="#1D5B45"/>
<path d="M522.714 94.9027C522.714 94.9027 555.633 52.5232 568.879 63.8737C582.122 75.2259 541.065 97.1738 528.767 99.6336C516.47 102.093 522.714 94.9027 522.714 94.9027Z" fill="#6EAF45"/>
<path d="M528.201 96.7947C528.201 96.7947 533.377 89.6992 546.303 81.0431C559.229 72.3887 563.769 72.0096 563.769 72.0096C563.769 72.0096 535.389 88.6588 528.201 96.7947Z" fill="#2C8443"/>
<path d="M81.2372 354.237C81.2372 354.237 68.1757 358.661 61.7413 348.293C55.3083 337.927 62.0175 335.5 51.2802 331.759C40.5427 328.018 37.9357 325.658 35.7738 318.223C33.6116 310.789 22.4345 312.501 18.1822 303.687C13.9296 294.874 20.2744 297.673 11.6593 285.751C3.04297 273.832 -2.38057 266.862 1.73857 263.958C5.8582 261.05 14.3925 260.978 20.2691 269.919C26.1472 278.859 31.1169 283.856 38.1781 283.576C45.2393 283.297 45.8727 299.665 54.4569 299.321C63.0424 298.974 70.0968 303.119 72.978 311.18C75.86 319.242 86.8712 317.127 92.2995 325.814C97.7278 334.499 100.606 344.037 100.606 344.037L81.2372 354.237Z" fill="#2C8443"/>
<path d="M19.2347 281.272C19.2347 281.272 19.5442 281.621 20.1308 282.279C23.8389 286.427 38.6409 302.758 56.8114 319.696C77.8592 339.314 93.1347 347.972 93.1347 347.972L90.693 349.257C90.693 349.257 79.8329 343.431 59.0388 323.927C38.2454 304.419 19.2347 281.272 19.2347 281.272Z" fill="#1D5B45"/>
<path d="M79.7182 343.848C79.7182 343.848 62.0003 342.941 59.2248 327.493C56.4492 312.041 65.6245 312.324 54.5588 302.755C43.4933 293.187 41.496 289.129 42.4382 279.214C43.3798 269.297 29.2016 266.04 28.2977 253.484C27.3945 240.927 33.654 247.284 29.006 228.941C24.3588 210.6 21.1794 199.694 27.4849 198.173C33.7892 196.65 44.0285 200.612 46.8156 214.092C49.602 227.573 53.1744 235.906 61.7509 238.922C70.3275 241.936 63.3188 261.811 73.7486 265.471C84.18 269.13 90.6487 277.435 90.2696 288.443C89.8905 299.45 104.062 302.145 106.433 315.107C108.803 328.069 107.72 340.838 107.72 340.838L79.7182 343.848Z" fill="#6EAF45"/>
<path d="M40.1921 227.177C40.1921 227.177 40.3954 227.743 40.7851 228.808C43.251 235.53 53.2033 262.079 66.8969 290.953C82.7585 324.399 96.9172 342 96.9172 342L93.3891 342.379C93.3891 342.379 83.1648 330.261 67.554 297.069C51.943 263.877 40.1921 227.177 40.1921 227.177Z" fill="#2C8443"/>
<path d="M110.368 340.555C110.368 340.555 95.7783 337.629 98.2594 327.517C100.742 317.406 100.537 309.554 95.1547 303.946C89.7707 298.338 86.008 290.305 88.9617 280.428C91.9154 270.548 91.0343 268.58 86.6119 258.559C82.1891 248.534 76.9868 233.331 89.1258 230.064C101.266 226.8 104.134 253.488 109.761 260.195C115.389 266.902 128.245 269.553 129.95 282.015C131.655 294.473 127.513 298.781 138.904 305.149C150.294 311.518 146.858 331.853 143.53 336.992L110.368 340.555Z" fill="#2C8443"/>
<path d="M98.4153 254.247C98.4153 254.247 113.266 307.342 119.301 319.91C125.335 332.479 128.448 338.612 128.448 338.612L124.83 339.001C124.83 339.001 100.662 276.526 98.4153 254.247Z" fill="#1D5B45"/>
<path d="M533.687 35.4949V165.786C533.687 171.642 528.949 176.38 523.091 176.38H315.73C309.871 176.38 305.134 171.642 305.134 165.786V35.4949C305.134 29.6367 309.871 24.8993 315.73 24.8993H523.091C528.949 24.8993 533.687 29.6367 533.687 35.4949Z" fill="#E1E6F4"/>
<path d="M533.687 35.4949V46.089H305.134V35.4949C305.134 30.8313 308.13 26.8815 312.323 25.4588C313.383 25.0962 314.533 24.8993 315.73 24.8993H523.091C528.949 24.8993 533.687 29.6367 533.687 35.4949Z" fill="#6776E8"/>
<path d="M313.458 54.0362V168.57C313.458 170.037 314.638 171.219 316.107 171.219H416.76C418.229 171.219 419.41 170.037 419.41 168.57V167.783C419.41 166.33 420.59 165.134 422.059 165.134H533.687V165.786C533.687 171.642 528.949 176.38 523.091 176.38H315.73C309.871 176.38 305.134 171.642 305.134 165.786V47.149C305.618 46.4976 306.389 46.089 307.252 46.089H533.687V51.3877H316.107C314.638 51.3877 313.458 52.5675 313.458 54.0362Z" fill="#C3C9E0"/>
<mask id="mask0_52_542" style="mask-type:luminance" maskUnits="userSpaceOnUse" x="305" y="25" width="229" height="22">
<path d="M312.323 25.4588C308.13 26.8815 305.134 30.8313 305.134 35.4949V46.089H533.687V40.4129H315.35C313.685 40.4129 312.323 39.0509 312.323 37.3853V25.4588Z" fill="white"/>
</mask>
<g mask="url(#mask0_52_542)">
<path d="M305.134 46.089H533.687V25.4588H305.134V46.089Z" fill="#5350CD"/>
</g>
<path d="M463.774 28.4863H347.817C346.612 28.4863 345.638 29.4611 345.638 30.6655C345.638 31.87 346.612 32.8447 347.817 32.8447H463.774C464.977 32.8447 465.953 31.87 465.953 30.6655C465.953 29.4611 464.977 28.4863 463.774 28.4863Z" fill="#67A2E6"/>
<path d="M509.125 27.9268H475.892C474.588 27.9268 473.529 28.9835 473.529 30.2897V30.4817C473.529 31.7879 474.588 32.8447 475.892 32.8447H509.125C510.43 32.8447 511.488 31.7879 511.488 30.4817V30.2897C511.488 28.9835 510.43 27.9268 509.125 27.9268Z" fill="#67A2E6"/>
<path d="M426.849 104.868H406.547C404.734 104.868 403.265 103.398 403.265 101.586V84.814C403.265 83.0024 404.734 81.5321 406.547 81.5321H426.849C428.662 81.5321 430.131 83.0024 430.131 84.814V101.586C430.131 103.398 428.662 104.868 426.849 104.868Z" fill="#4167AA"/>
<path d="M418.139 93.8886L419.835 98.5653H413.567L415.201 93.859C414.218 93.329 413.567 92.2854 413.567 91.1039C413.567 89.3628 414.96 87.9713 416.7 87.9713C418.426 87.9713 419.835 89.3628 419.835 91.1039C419.835 92.3149 419.138 93.3585 418.139 93.8886Z" fill="#343D5B"/>
<path d="M427.074 81.5321H422.532V76.2662C422.532 72.981 419.858 70.3063 416.572 70.3063C413.286 70.3063 410.612 72.981 410.612 76.2662V78.9164H406.071V76.2662C406.071 70.4769 410.782 65.7657 416.572 65.7657C422.362 65.7657 427.074 70.4769 427.074 76.2662V81.5321Z" fill="#8697BF"/>
<path d="M467.717 136.401H364.041C362.228 136.401 360.759 134.931 360.759 133.119V123.285C360.759 121.473 362.228 120.003 364.041 120.003H467.717C469.53 120.003 470.999 121.473 470.999 123.285V133.119C470.999 134.931 469.53 136.401 467.717 136.401Z" fill="white"/>
<path d="M467.717 160.365H364.041C362.228 160.365 360.759 158.897 360.759 157.084V147.251C360.759 145.438 362.228 143.969 364.041 143.969H467.717C469.53 143.969 470.999 145.438 470.999 147.251V157.084C470.999 158.897 469.53 160.365 467.717 160.365Z" fill="white"/>
<path d="M457.44 130.472H374.571C373.419 130.472 372.489 129.54 372.489 128.391C372.489 127.241 373.419 126.311 374.571 126.311H457.44C458.588 126.311 459.52 127.241 459.52 128.391C459.52 129.54 458.588 130.472 457.44 130.472Z" fill="#C3C9E0"/>
<path d="M390.336 152.766C390.336 153.933 389.391 154.88 388.224 154.88C387.057 154.88 386.112 153.933 386.112 152.766C386.112 151.599 387.057 150.654 388.224 150.654C389.391 150.654 390.336 151.599 390.336 152.766Z" fill="#C3C9E0"/>
<path d="M398.283 152.766C398.283 153.933 397.338 154.88 396.171 154.88C395.004 154.88 394.058 153.933 394.058 152.766C394.058 151.599 395.004 150.654 396.171 150.654C397.338 150.654 398.283 151.599 398.283 152.766Z" fill="#C3C9E0"/>
<path d="M406.23 152.766C406.23 153.933 405.283 154.88 404.115 154.88C402.948 154.88 402.003 153.933 402.003 152.766C402.003 151.599 402.948 150.654 404.115 150.654C405.283 150.654 406.23 151.599 406.23 152.766Z" fill="#C3C9E0"/>
<path d="M414.176 152.766C414.176 153.933 413.229 154.88 412.062 154.88C410.895 154.88 409.95 153.933 409.95 152.766C409.95 151.599 410.895 150.654 412.062 150.654C413.229 150.654 414.176 151.599 414.176 152.766Z" fill="#C3C9E0"/>
<path d="M422.121 152.766C422.121 153.933 421.176 154.88 420.009 154.88C418.843 154.88 417.897 153.933 417.897 152.766C417.897 151.599 418.843 150.654 420.009 150.654C421.176 150.654 422.121 151.599 422.121 152.766Z" fill="#C3C9E0"/>
<path d="M430.068 152.766C430.068 153.933 429.123 154.88 427.956 154.88C426.79 154.88 425.843 153.933 425.843 152.766C425.843 151.599 426.79 150.654 427.956 150.654C429.123 150.654 430.068 151.599 430.068 152.766Z" fill="#C3C9E0"/>
<path d="M438.016 152.766C438.016 153.933 437.069 154.88 435.902 154.88C434.735 154.88 433.789 153.933 433.789 152.766C433.789 151.599 434.735 150.654 435.902 150.654C437.069 150.654 438.016 151.599 438.016 152.766Z" fill="#C3C9E0"/>
<path d="M445.961 152.766C445.961 153.933 445.014 154.88 443.848 154.88C442.681 154.88 441.736 153.933 441.736 152.766C441.736 151.599 442.681 150.654 443.848 150.654C445.014 150.654 445.961 151.599 445.961 152.766Z" fill="#C3C9E0"/>
<path d="M660 351.458C660 361.698 523.552 370 355.234 370C186.919 370 50.4698 361.698 50.4698 351.458C50.4698 341.218 186.919 332.916 355.234 332.916C523.552 332.916 660 341.218 660 351.458Z" fill="#E1E6F4"/>
<path d="M413.034 346.846C413.034 353.364 348.219 358.648 268.266 358.648C188.314 358.648 123.499 353.364 123.499 346.846C123.499 340.331 188.314 335.048 268.266 335.048C348.219 335.048 413.034 340.331 413.034 346.846Z" fill="#9EA9CC"/>
<path d="M596.122 343.625C596.122 346.613 565.289 349.033 527.253 349.033C489.219 349.033 458.387 346.613 458.387 343.625C458.387 340.637 489.219 338.215 527.253 338.215C565.289 338.215 596.122 340.637 596.122 343.625Z" fill="#9EA9CC"/>
<path d="M386.156 323.078C381.54 343.631 354.327 349.567 291.133 350.701C227.94 351.836 160.964 348.81 124.259 332.932C87.5538 317.038 103.447 257.993 121.609 228.751C139.772 199.522 143.936 200.856 157.935 182.041C166.548 170.446 173.737 165.786 180.291 165.392C184.379 165.134 188.207 166.557 191.991 168.994C201.83 175.351 228.197 197.448 228.197 197.448C228.197 197.448 310.81 275.399 345.638 284.86C364.225 289.914 375.833 294.606 381.918 301.011C387.216 306.595 388.306 313.497 386.156 323.078Z" fill="#FFC655"/>
<path d="M207.685 198.401C201.099 200.981 187.605 210.554 177.037 246.065C171.054 266.168 184.802 277.222 204.364 283.482C206.983 283.008 209.558 282.614 211.665 282.392C220.741 281.439 208.263 281.454 196.154 273.508C184.046 265.561 189.722 249.092 189.722 249.092C193.127 264.411 197.667 262.912 202.966 266.022C203.742 266.477 204.316 266.7 204.737 266.7C207.19 266.7 204.494 259.15 206.783 246.065C207.623 241.258 209.495 236.322 211.671 231.813C211.709 230.728 211.934 229.337 212.047 227.661C212.113 226.701 212.137 225.402 212.137 223.999C212.137 220.119 211.95 215.439 211.929 214.904C211.922 214.873 211.921 214.855 211.921 214.855C211.921 214.855 211.922 214.855 211.926 214.855C211.916 214.852 211.842 214.826 211.169 214.599C210.413 214.356 210.034 214.476 209.52 212.148C209.338 211.298 208.547 205.687 207.685 198.401ZM224.22 284.412C223.928 284.412 223.654 284.434 223.399 284.481C221.775 284.782 217.731 285.321 212.974 285.863C219.492 287.42 226.378 288.567 233.222 289.439C233.98 287.84 227.845 284.412 224.22 284.412Z" fill="#FFAA56"/>
<path d="M386.156 323.078C381.54 343.631 354.327 349.567 291.133 350.701C227.94 351.836 160.964 348.81 124.259 332.932C87.5538 317.038 103.447 257.993 121.609 228.751C139.772 199.522 143.936 200.856 157.935 182.041C166.548 170.446 173.737 165.786 180.291 165.392C172.648 170.599 159.495 181.239 155.288 195.18C149.233 215.233 139.651 227.19 124.636 240.587C109.621 253.982 108.364 295.077 121.609 311.726C134.855 328.377 176.478 337.079 229.832 342.376C283.186 347.673 372.52 344.496 377.997 323.759C380.072 315.873 381.253 307.881 381.918 301.011C387.216 306.595 388.306 313.497 386.156 323.078Z" fill="#FF8A57"/>
<path d="M189.722 249.092C189.722 249.092 184.046 265.561 196.154 273.508C208.263 281.454 220.741 281.439 211.665 282.392C202.587 283.346 184.802 287.507 192.37 287.507C199.938 287.507 219.315 285.239 223.399 284.481C227.484 283.725 237.021 289.401 231.724 290.157C226.427 290.914 224.156 297.346 224.156 297.346C224.156 297.346 230.675 289.921 244.632 293.444C258.59 296.969 256.35 294.286 264.282 300.167C272.213 306.05 277.132 308.321 271.834 302.834C266.537 297.346 262.026 293.564 264.282 295.454C265.245 296.263 271.85 296.239 280.405 296.211C291.842 296.176 306.767 296.14 316.36 298.103C333.127 301.536 350.541 317.944 350.541 317.944L332.756 293.941C332.756 293.941 218.132 269.542 213.56 258.136C208.99 246.729 222.643 214.099 222.643 214.099C222.643 214.099 209.464 230.733 206.783 246.065C204.1 261.398 208.263 269.13 202.966 266.022C197.667 262.912 193.127 264.411 189.722 249.092Z" fill="#FF8A57"/>
<path d="M128.794 261.02C128.794 261.02 107.081 294.299 151.592 314.238C196.103 334.178 227.044 331.656 228.128 330.143C229.215 328.628 234.1 324.414 225.957 317.944C217.815 311.473 161.363 301.887 153.763 287.256C146.164 272.625 142.907 249.921 128.794 261.02Z" fill="#FFE461"/>
<path d="M241.699 321.748C241.699 321.748 311.791 319.547 310.67 328.123C309.551 336.7 309.683 338.215 285.19 338.215C260.698 338.215 224.33 328.992 241.699 321.748Z" fill="#FFE461"/>
<path d="M263.7 96.7946C263.7 96.7946 251.117 84.4973 237.493 89.7943C223.872 95.093 216.304 109.282 215.736 118.931C215.168 128.58 217.912 132.554 214.507 136.527C211.1 140.5 204.858 145.42 209.398 150.528C213.939 155.636 202.966 152.799 208.263 161.408C213.56 170.016 263.7 161.028 263.7 161.028C263.7 161.028 270.321 157.056 267.672 151.852C265.022 146.649 267.787 146.744 268.298 142.865C268.806 138.987 265.213 139.555 267.105 133.972C268.997 128.391 275.145 116.471 274.294 107.769C273.442 99.0657 263.7 96.7946 263.7 96.7946Z" fill="#252549"/>
<path d="M229.65 147.878C229.65 147.878 231.535 147.973 231.345 145.608C231.156 143.244 230.116 144.473 233.711 138.703C237.305 132.932 236.264 132.271 234.94 129.053C233.616 125.836 239.146 123.567 242.436 118.931C245.724 114.295 249.792 108.526 253.293 105.31C256.793 102.093 260.104 101.998 261.996 102.943C263.888 103.89 264.456 105.971 264.456 105.971C264.456 105.971 263.982 126.499 259.725 134.067C255.468 141.636 252.347 141.824 248.657 140.689C248.657 140.689 247.326 147.225 248.086 149.68C248.846 152.136 257.077 155.448 252.347 162.164C247.616 168.88 234.879 172.069 230.4 164.624C225.92 157.177 229.65 147.878 229.65 147.878Z" fill="#FFBF9F"/>
<path d="M380.616 312.775C380.616 312.775 391.936 315.294 396.022 317.386C400.108 319.481 405.485 320.19 407.953 316.628C410.421 313.065 409.981 310.581 414.066 307.32C418.148 304.058 427.356 299.196 425.902 295.766C424.446 292.335 421.347 293.063 418.757 295.648C416.168 298.234 404.19 300.335 401.995 301.39C399.801 302.446 392.335 302.515 390.777 302.519C389.222 302.522 381.696 299.8 381.696 299.8L380.616 312.775Z" fill="#FFBF9F"/>
<path d="M365.803 329.134C365.803 329.134 375.137 336.07 376.399 340.484C377.659 344.9 380.813 349.312 385.103 348.684C389.391 348.052 390.905 346.034 396.076 346.79C401.247 347.548 411.084 350.953 412.599 347.548C414.112 344.142 411.463 342.376 407.805 342.251C404.148 342.125 394.435 334.81 392.166 333.925C389.894 333.042 381.681 328.249 380.616 327.114C379.553 325.98 376.02 321.06 376.02 321.06L365.803 329.134Z" fill="#FFBF9F"/>
<path d="M386.156 314.708C385.52 316.145 384.962 317.191 384.597 317.599C383.129 319.248 375.728 314.45 375.334 314.193L375.364 314.239C375.879 314.769 379.906 319.097 380.616 321.748V321.761C381.312 324.622 365.298 332.342 362.27 332.916C359.244 333.492 337.298 302.826 337.298 302.826C337.298 302.826 312.323 295.258 309.477 293.941C308.115 293.306 295.718 293.292 283.307 293.428H283.293C270.017 293.592 256.699 293.941 256.699 293.941C256.699 293.941 250.084 291.67 243.455 289.022C236.826 286.373 211.926 279.002 211.926 279.002C211.926 279.002 207.127 275.218 207.127 260.082C207.127 244.946 215.452 230.249 215.452 230.249L227.986 231.157L264.282 233.776L326.127 247.776L332.756 251.56L352.992 282.392C352.992 282.392 360.47 285.026 368.675 288.249C378.345 292.035 389.077 296.636 389.894 298.679C391.046 301.57 388.23 310.092 386.156 314.708Z" fill="#3B345B"/>
<path d="M316.36 296.321L316.685 296.423C316.598 296.395 316.511 296.367 316.425 296.339C316.383 296.327 316.36 296.321 316.36 296.321ZM336.176 302.484L337.298 302.834C337.298 302.834 337.295 302.831 337.29 302.824C337.229 302.806 336.832 302.684 336.176 302.484Z" fill="#5D3C2E"/>
<path d="M257.644 261.02C257.644 261.02 284.699 268.777 300.026 271.805C315.35 274.832 320.457 281.268 321.783 289.778C322.689 295.599 319.82 296.519 317.915 296.519C317.197 296.519 316.616 296.386 316.425 296.339C316.511 296.367 316.598 296.395 316.685 296.423L336.176 302.484C336.832 302.684 337.229 302.806 337.29 302.824C336.808 302.202 314.955 274.06 313.458 272.561C311.944 271.048 257.644 261.02 257.644 261.02Z" fill="#26242F"/>
<path d="M352.992 282.392L375.319 314.178L375.334 314.193C375.669 314.414 381.117 317.944 383.614 317.944C384.041 317.944 384.382 317.84 384.597 317.599C384.962 317.191 385.52 316.145 386.156 314.708C382.54 312.755 379.269 310.364 377.226 307.473C373.639 302.417 370.702 294.713 368.675 288.249C360.47 285.026 352.992 282.392 352.992 282.392Z" fill="#26242F"/>
<path d="M213.353 234.489C210.887 239.937 207.127 249.91 207.127 260.082C207.127 275.218 211.926 279.002 211.926 279.002C211.926 279.002 236.826 286.373 243.455 289.022C250.084 291.67 256.699 293.941 256.699 293.941C256.699 293.941 270.017 293.592 283.293 293.428C262.208 290.656 233.995 280.318 225.729 264.046C221.57 255.847 223.57 244.452 226.581 235.17C220.249 234.975 214.968 234.749 213.353 234.489Z" fill="#26242F"/>
<path d="M274.75 211.029C274.75 211.029 278.14 223.433 279.402 223.874C280.664 224.317 284.546 224.836 284.546 224.836L287.003 209.689L285.331 207.413C285.331 207.413 273.032 205.203 274.75 211.029Z" fill="#FFBF9F"/>
<path d="M286.304 207.377C286.365 207.983 285.078 208.651 283.307 209.256H283.293C279.842 210.405 274.558 211.283 273.818 210.981C272.682 210.497 268.806 196.874 268.806 196.874C268.806 196.874 268.777 197.071 268.716 197.448V197.479C268.655 197.812 268.58 198.282 268.504 198.858C268.171 201.278 267.566 205.699 267.006 210.981C266.78 213.145 266.673 215.566 266.658 218.004C266.612 222.09 266.78 226.207 266.885 229.16C266.975 231.02 267.036 232.397 267.006 233.019C266.916 235.198 261.527 236.047 249.978 235.758C238.444 235.471 215.014 235.033 212.986 234.412C210.972 233.776 211.789 231.444 212.047 227.661C212.305 223.877 211.926 214.855 211.926 214.855C211.926 214.855 211.926 214.855 211.169 214.599C210.413 214.356 210.034 214.476 209.52 212.148C209.019 209.816 203.919 171.536 205.432 161.304C206.947 151.102 229.65 147.878 229.65 147.878C229.65 147.878 231.724 151.193 233.995 153.933C236.264 156.673 244.968 161.79 245.724 161.79C246.481 161.79 247.996 160.548 249.417 156.401C250.841 152.223 248.086 149.68 248.086 149.68C248.086 149.68 250.734 149.68 254.897 150.815C259.059 151.951 268.05 155.735 269.76 159.609C271.456 163.483 286.123 205.592 286.304 207.377Z" fill="#6776E8"/>
<path d="M268.504 198.858C268.171 201.278 267.566 205.699 267.006 210.981C266.78 213.145 266.673 215.566 266.658 218.004L268.504 198.858Z" fill="#7972D3"/>
<path d="M224.413 176.38C224.413 176.38 227.439 206.91 227.439 209.301C227.439 211.283 226.414 211.458 226.051 211.458C225.974 211.458 225.926 211.45 225.926 211.45C225.926 211.45 225.925 211.452 225.923 211.455C225.946 211.698 226.822 220.413 228.066 220.909C229.326 221.414 262.123 232.136 263.636 232.136C264.277 232.136 265.529 231.933 267 231.861C266.98 231.158 266.937 230.241 266.885 229.16C260.769 227.934 252.187 226.027 245.724 223.877C234.508 220.152 227.562 216.49 228.439 213.462C229.065 211.34 238.114 210.587 246.205 210.587C249.656 210.587 252.932 210.723 255.306 210.95C263.252 211.708 266.658 218.004 266.658 218.004C266.673 215.566 266.78 213.145 267.006 210.981C267.566 205.699 268.171 201.278 268.504 198.858L269.443 189.123C269.443 189.123 265.9 194.799 260.982 196.434C258.813 197.162 254.218 197.615 249.249 197.615C242.948 197.615 236.048 196.887 232.738 195.057C226.804 191.772 224.413 176.38 224.413 176.38Z" fill="#5350CD"/>
<path d="M211.929 214.905C211.95 215.439 212.137 220.119 212.137 223.999C212.137 225.402 212.113 226.701 212.047 227.661C211.922 229.501 211.665 230.997 211.665 232.121C211.665 233.311 211.952 234.086 212.986 234.412C214.576 234.898 229.321 235.272 241.174 235.551C235.506 234.562 229.536 233.526 225.669 232.387C217.093 229.865 215.199 228.316 214.192 225.686C213.229 223.175 212.036 215.595 211.929 214.905Z" fill="#5350CD"/>
<path d="M211.921 214.855C211.921 214.855 215.327 214.604 218.985 213.972C222.643 213.342 225.921 211.45 225.921 211.45C225.921 211.45 226.804 220.407 228.066 220.909C229.326 221.414 262.123 232.136 263.636 232.136C265.149 232.136 270.068 231.001 273.222 233.144C276.374 235.289 281.895 241.193 281.895 241.193C281.895 241.193 282.237 246.065 279.81 246.065C277.384 246.065 277.006 240.587 270.951 241.723C268.55 242.172 265.997 243.214 263.526 242.681C261.081 242.154 258.217 240.507 256.194 239.074C253.166 236.929 234.246 234.911 225.669 232.387C217.093 229.865 215.199 228.316 214.192 225.686C213.183 223.055 211.921 214.855 211.921 214.855Z" fill="#FFBF9F"/>
<path d="M264.282 171.764L269.443 189.123L268.716 197.448C268.777 197.07 268.806 196.874 268.806 196.874C268.806 196.874 272.682 210.497 273.818 210.981C273.918 211.022 274.1 211.042 274.351 211.042C275.954 211.042 280.308 210.249 283.293 209.256C282.247 209.089 280.779 208.862 278.903 208.544C274.574 207.817 272.091 197.448 272.091 192.409C272.091 187.505 264.75 172.687 264.282 171.764Z" fill="#5350CD"/>
<path d="M227.643 155.948C226.284 155.948 225.501 156.901 225.795 159.483C225.795 159.483 231.345 180.169 244.842 181.934C245.395 182.006 245.93 182.043 246.443 182.043C258.468 182.043 259.932 162.991 258.842 159.483C258.307 157.758 257.659 157.015 256.794 157.015C255.825 157.015 254.581 157.95 252.914 159.483C250.534 161.673 247.075 163.936 243.732 163.936C242.648 163.936 241.573 163.697 240.554 163.14C237.608 161.534 230.934 155.948 227.643 155.948Z" fill="#678EE7"/>
<path d="M375.364 314.238C375.879 314.768 379.906 319.097 380.616 321.747C377.725 318.067 375.652 314.737 375.364 314.238Z" fill="white"/>
<path d="M248.657 140.689C248.657 140.689 243.644 138.231 241.561 137C239.481 135.771 239.103 135.666 239.103 135.666C239.103 135.666 244.116 147.973 245.157 146.839C246.197 145.703 248.657 140.689 248.657 140.689Z" fill="#FF9B80"/>
<path d="M352.978 204.048L345.638 246.142L345.334 247.852C345.214 248.579 344.578 249.092 343.852 249.092H252.913C252.082 249.092 251.401 248.428 251.401 247.594V247.579C251.401 246.746 252.082 246.065 252.913 246.065H279.81C280.552 246.065 281.187 245.536 281.31 244.795L287.999 203.549C288.106 202.807 288.741 202.277 289.482 202.277H351.479C352.418 202.277 353.129 203.124 352.978 204.048Z" fill="#696B84"/>
<path d="M320.523 223.874C320.523 225.999 319.591 227.722 318.44 227.722C317.292 227.722 316.36 225.999 316.36 223.874C316.36 221.749 317.292 220.026 318.44 220.026C319.591 220.026 320.523 221.749 320.523 223.874Z" fill="#8186AA"/>
<path d="M291.345 202.277H289.482C288.741 202.277 288.106 202.807 287.999 203.549L287.003 209.69L286.758 211.198L281.895 241.194L281.31 244.795C281.187 245.536 280.552 246.065 279.81 246.065H252.913C252.082 246.065 251.401 246.746 251.401 247.579V247.594C251.401 248.428 252.082 249.092 252.913 249.092H343.852C344.578 249.092 345.214 248.579 345.334 247.852L345.638 246.142H287.636C285.774 246.142 284.353 244.461 284.655 242.615L291.345 202.277Z" fill="#535777"/>
<path d="M587.041 289.522V298.648C587.041 299.496 586.36 300.162 585.527 300.162H479.319C478.487 300.162 477.806 299.496 477.806 298.648V289.522C477.806 288.689 478.487 288.008 479.319 288.008H585.527C586.36 288.008 587.041 288.689 587.041 289.522Z" fill="#FF8A57"/>
<path d="M587.041 295.335V298.648C587.041 299.496 586.36 300.162 585.527 300.162H479.319C478.487 300.162 477.806 299.496 477.806 298.648V289.522C477.806 288.689 478.487 288.008 479.319 288.008H484.873V292.307C484.873 293.973 486.235 295.335 487.901 295.335H587.041Z" fill="#E25247"/>
<path d="M494.455 300.162L482.95 344.526C482.633 345.737 481.724 346.644 480.605 346.992C480.029 347.176 479.409 347.204 478.789 347.068C477.154 346.707 476.035 345.238 476.035 343.631C476.035 343.359 476.065 343.087 476.14 342.801L485.479 304.915L486.644 300.162H494.455Z" fill="#E25247"/>
<path d="M494.455 300.162L482.95 344.526C482.633 345.737 481.724 346.644 480.605 346.992C485.585 331.221 489.414 304.915 489.414 304.915H485.479L486.644 300.162H494.455Z" fill="#B2322B"/>
<path d="M568.62 300.162L580.125 344.526C580.443 345.737 581.35 346.644 582.471 346.992C583.044 347.176 583.666 347.204 584.286 347.068C585.92 346.707 587.041 345.238 587.041 343.631C587.041 343.359 587.01 343.087 586.936 342.801L577.596 304.915L576.431 300.162H568.62Z" fill="#E25247"/>
<path d="M568.62 300.162L580.125 344.526C580.443 345.737 581.35 346.644 582.471 346.992C577.491 331.221 573.661 304.915 573.661 304.915H577.596L576.431 300.162H568.62Z" fill="#B2322B"/>
<path d="M520.443 279.309C520.443 279.309 514.64 278.679 514.389 274.895C514.135 271.111 512.245 271.867 510.1 271.994C507.957 272.12 506.568 270.607 506.946 268.337C507.325 266.066 503.92 264.046 505.937 263.039C507.957 262.03 509.47 262.156 510.479 263.922C511.488 265.687 513.707 266.319 516.317 265.248C518.928 264.174 520.443 264.678 519.686 267.579C518.928 270.481 523.104 266.552 524.353 271.742C525.602 276.933 520.443 279.309 520.443 279.309Z" fill="#1D5B45"/>
<path d="M529.273 278.301C529.273 278.301 524.245 272.648 525.868 269.598C527.487 266.547 530.3 268.84 531.047 265.435C531.795 262.03 532.678 260.768 535.705 261.398C538.733 262.03 536.839 256.731 540.876 257.615C544.913 258.498 543.525 261.779 540.876 263.669C538.227 265.561 543.777 268.211 539.742 269.977C535.705 271.743 532.996 270.228 534.478 272.75C535.956 275.274 533.687 277.922 531.795 278.301C529.903 278.679 529.273 278.301 529.273 278.301Z" fill="#2C8443"/>
<path d="M523.091 277.04C523.091 277.04 518.298 275.653 519.811 271.49C521.326 267.327 515.018 267.327 516.532 264.046C518.047 260.768 516.785 259.632 515.398 258.625C514.01 257.615 516.155 254.965 519.245 256.227C522.335 257.487 519.686 262.407 523.597 263.039C527.507 263.669 528.011 265.94 527.128 267.957C526.245 269.977 531.29 270.481 531.038 273.887C530.786 277.292 523.091 277.04 523.091 277.04Z" fill="#6EAF45"/>
<path d="M538.605 281.695V281.711C538.605 282.378 538.5 282.998 538.319 283.603C537.515 286.162 535.124 288.008 532.31 288.008H517.916C514.434 288.008 511.618 285.192 511.618 281.711V281.695C511.618 279.048 513.237 276.792 515.554 275.855C516.281 275.566 517.082 275.399 517.916 275.399H532.31C535.791 275.399 538.605 278.214 538.605 281.695Z" fill="#C3C9E0"/>
<path d="M538.319 283.603C537.515 286.162 535.124 288.008 532.31 288.008H517.916C514.434 288.008 511.618 285.192 511.618 281.711V281.695C511.618 279.048 513.237 276.792 515.554 275.855C515.856 276.536 516.024 277.292 516.024 278.095C516.024 281.137 518.492 283.603 521.532 283.603H538.319Z" fill="#9EA9CC"/>
<path d="M549.701 174.488V228.479C549.701 231.823 546.992 234.532 543.648 234.532H429.885C426.539 234.532 423.829 231.823 423.829 228.479V174.488C423.829 171.143 426.539 168.434 429.885 168.434H543.648C546.992 168.434 549.701 171.143 549.701 174.488Z" fill="#E1E6F4"/>
<path d="M549.701 174.488V179.286H423.829V174.488C423.829 173.277 424.177 172.158 424.783 171.219C425.858 169.539 427.75 168.434 429.885 168.434H543.648C545.781 168.434 547.673 169.539 548.748 171.219C549.352 172.158 549.701 173.277 549.701 174.488Z" fill="#6776E8"/>
<path d="M509.847 200.476H464.189C463.282 200.476 462.548 199.742 462.548 198.835V195.938C462.548 195.031 463.282 194.297 464.189 194.297H509.847C510.753 194.297 511.488 195.031 511.488 195.938V198.835C511.488 199.742 510.753 200.476 509.847 200.476Z" fill="#C3C9E0"/>
<path d="M460.907 223.306H450.188C449.282 223.306 448.547 222.571 448.547 221.665V207.415C448.547 206.509 449.282 205.774 450.188 205.774H460.907C461.814 205.774 462.548 206.509 462.548 207.415V221.665C462.548 222.571 461.814 223.306 460.907 223.306Z" fill="#8697BF"/>
<path d="M482.349 223.306H471.631C470.723 223.306 469.99 222.571 469.99 221.665V207.415C469.99 206.509 470.723 205.774 471.631 205.774H482.349C483.255 205.774 483.99 206.509 483.99 207.415V221.665C483.99 222.571 483.255 223.306 482.349 223.306Z" fill="#8697BF"/>
<path d="M503.792 223.306H493.073C492.167 223.306 491.432 222.571 491.432 221.665V207.415C491.432 206.509 492.167 205.774 493.073 205.774H503.792C504.698 205.774 505.433 206.509 505.433 207.415V221.665C505.433 222.571 504.698 223.306 503.792 223.306Z" fill="#8697BF"/>
<path d="M525.234 223.306H514.516C513.61 223.306 512.875 222.571 512.875 221.665V207.415C512.875 206.509 513.61 205.774 514.516 205.774H525.234C526.142 205.774 526.875 206.509 526.875 207.415V221.665C526.875 222.571 526.142 223.306 525.234 223.306Z" fill="#8697BF"/>
<path d="M433.032 228.219H549.701V228.479C549.701 231.823 546.992 234.532 543.648 234.532H429.885C426.539 234.532 423.829 231.823 423.829 228.479V179.694C424.146 179.437 424.555 179.286 424.995 179.286H547.809C548.854 179.286 549.701 180.134 549.701 181.178C549.701 182.223 548.854 183.07 547.809 183.07H433.032C431.988 183.07 431.14 183.918 431.14 184.962V226.329C431.14 227.374 431.988 228.219 433.032 228.219Z" fill="#C3C9E0"/>
<path d="M548.748 171.219H424.783C425.858 169.539 427.75 168.434 429.885 168.434H543.648C545.781 168.434 547.673 169.539 548.748 171.219Z" fill="#67AFE5"/>
</svg>
